<svg width="141" height="49" viewBox="0 0 141 49" fill="none" xmlns="http://www.w3.org/2000/svg">
<path d="M21.0938 2.5V48H15.1562V2.5H21.0938ZM35.7188 2.5V7.4375H0.5625V2.5H35.7188ZM36.9375 31.4688V30.75C36.9375 28.3125 37.2917 26.0521 38 23.9688C38.7083 21.8646 39.7292 20.0417 41.0625 18.5C42.3958 16.9375 44.0104 15.7292 45.9062 14.875C47.8021 14 49.9271 13.5625 52.2812 13.5625C54.6562 13.5625 56.7917 14 58.6875 14.875C60.6042 15.7292 62.2292 16.9375 63.5625 18.5C64.9167 20.0417 65.9479 21.8646 66.6562 23.9688C67.3646 26.0521 67.7188 28.3125 67.7188 30.75V31.4688C67.7188 33.9062 67.3646 36.1667 66.6562 38.25C65.9479 40.3333 64.9167 42.1562 63.5625 43.7188C62.2292 45.2604 60.6146 46.4688 58.7188 47.3438C56.8438 48.1979 54.7188 48.625 52.3438 48.625C49.9688 48.625 47.8333 48.1979 45.9375 47.3438C44.0417 46.4688 42.4167 45.2604 41.0625 43.7188C39.7292 42.1562 38.7083 40.3333 38 38.25C37.2917 36.1667 36.9375 33.9062 36.9375 31.4688ZM42.7188 30.75V31.4688C42.7188 33.1562 42.9167 34.75 43.3125 36.25C43.7083 37.7292 44.3021 39.0417 45.0938 40.1875C45.9062 41.3333 46.9167 42.2396 48.125 42.9062C49.3333 43.5521 50.7396 43.875 52.3438 43.875C53.9271 43.875 55.3125 43.5521 56.5 42.9062C57.7083 42.2396 58.7083 41.3333 59.5 40.1875C60.2917 39.0417 60.8854 37.7292 61.2812 36.25C61.6979 34.75 61.9062 33.1562 61.9062 31.4688V30.75C61.9062 29.0833 61.6979 27.5104 61.2812 26.0312C60.8854 24.5312 60.2812 23.2083 59.4688 22.0625C58.6771 20.8958 57.6771 19.9792 56.4688 19.3125C55.2812 18.6458 53.8854 18.3125 52.2812 18.3125C50.6979 18.3125 49.3021 18.6458 48.0938 19.3125C46.9062 19.9792 45.9062 20.8958 45.0938 22.0625C44.3021 23.2083 43.7083 24.5312 43.3125 26.0312C42.9167 27.5104 42.7188 29.0833 42.7188 30.75ZM96.2812 41.4375V0H102.094V48H96.7812L96.2812 41.4375ZM73.5312 31.4688V30.8125C73.5312 28.2292 73.8438 25.8854 74.4688 23.7812C75.1146 21.6562 76.0208 19.8333 77.1875 18.3125C78.375 16.7917 79.7812 15.625 81.4062 14.8125C83.0521 13.9792 84.8854 13.5625 86.9062 13.5625C89.0312 13.5625 90.8854 13.9375 92.4688 14.6875C94.0729 15.4167 95.4271 16.4896 96.5312 17.9062C97.6562 19.3021 98.5417 20.9896 99.1875 22.9688C99.8333 24.9479 100.281 27.1875 100.531 29.6875V32.5625C100.302 35.0417 99.8542 37.2708 99.1875 39.25C98.5417 41.2292 97.6562 42.9167 96.5312 44.3125C95.4271 45.7083 94.0729 46.7812 92.4688 47.5312C90.8646 48.2604 88.9896 48.625 86.8438 48.625C84.8646 48.625 83.0521 48.1979 81.4062 47.3438C79.7812 46.4896 78.375 45.2917 77.1875 43.75C76.0208 42.2083 75.1146 40.3958 74.4688 38.3125C73.8438 36.2083 73.5312 33.9271 73.5312 31.4688ZM79.3438 30.8125V31.4688C79.3438 33.1562 79.5104 34.7396 79.8438 36.2188C80.1979 37.6979 80.7396 39 81.4688 40.125C82.1979 41.25 83.125 42.1354 84.25 42.7812C85.375 43.4062 86.7188 43.7188 88.2812 43.7188C90.1979 43.7188 91.7708 43.3125 93 42.5C94.25 41.6875 95.25 40.6146 96 39.2812C96.75 37.9479 97.3333 36.5 97.75 34.9375V27.4062C97.5 26.2604 97.1354 25.1562 96.6562 24.0938C96.1979 23.0104 95.5938 22.0521 94.8438 21.2188C94.1146 20.3646 93.2083 19.6875 92.125 19.1875C91.0625 18.6875 89.8021 18.4375 88.3438 18.4375C86.7604 18.4375 85.3958 18.7708 84.25 19.4375C83.125 20.0833 82.1979 20.9792 81.4688 22.125C80.7396 23.25 80.1979 24.5625 79.8438 26.0625C79.5104 27.5417 79.3438 29.125 79.3438 30.8125ZM109.562 31.4688V30.75C109.562 28.3125 109.917 26.0521 110.625 23.9688C111.333 21.8646 112.354 20.0417 113.688 18.5C115.021 16.9375 116.635 15.7292 118.531 14.875C120.427 14 122.552 13.5625 124.906 13.5625C127.281 13.5625 129.417 14 131.312 14.875C133.229 15.7292 134.854 16.9375 136.188 18.5C137.542 20.0417 138.573 21.8646 139.281 23.9688C139.99 26.0521 140.344 28.3125 140.344 30.75V31.4688C140.344 33.9062 139.99 36.1667 139.281 38.25C138.573 40.3333 137.542 42.1562 136.188 43.7188C134.854 45.2604 133.24 46.4688 131.344 47.3438C129.469 48.1979 127.344 48.625 124.969 48.625C122.594 48.625 120.458 48.1979 118.562 47.3438C116.667 46.4688 115.042 45.2604 113.688 43.7188C112.354 42.1562 111.333 40.3333 110.625 38.25C109.917 36.1667 109.562 33.9062 109.562 31.4688ZM115.344 30.75V31.4688C115.344 33.1562 115.542 34.75 115.938 36.25C116.333 37.7292 116.927 39.0417 117.719 40.1875C118.531 41.3333 119.542 42.2396 120.75 42.9062C121.958 43.5521 123.365 43.875 124.969 43.875C126.552 43.875 127.938 43.5521 129.125 42.9062C130.333 42.2396 131.333 41.3333 132.125 40.1875C132.917 39.0417 133.51 37.7292 133.906 36.25C134.323 34.75 134.531 33.1562 134.531 31.4688V30.75C134.531 29.0833 134.323 27.5104 133.906 26.0312C133.51 24.5312 132.906 23.2083 132.094 22.0625C131.302 20.8958 130.302 19.9792 129.094 19.3125C127.906 18.6458 126.51 18.3125 124.906 18.3125C123.323 18.3125 121.927 18.6458 120.719 19.3125C119.531 19.9792 118.531 20.8958 117.719 22.0625C116.927 23.2083 116.333 24.5312 115.938 26.0312C115.542 27.5104 115.344 29.0833 115.344 30.75Z" fill="black"/>
</svg>
